<?xml version="1.0" encoding="UTF-8"?>
<svg id="Calque_2" data-name="Calque 2" xmlns="http://www.w3.org/2000/svg" viewBox="0 0 749.68 214.54">
  <defs>
    <style>
      .cls-1 {
        fill: #fff;
      }

      .cls-2 {
        fill: #f1a41c;
      }

      .cls-3 {
        fill: none;
      }
    </style>
  </defs>
  <g id="Calque_1" data-name="Calque 1">
    <g>
      <g>
        <path class="cls-1" d="M17.94,177.21v37.33H0v-90.63h97.66v13.39H17.94v26.52h74.32v13.39H17.94Z"/>
        <path class="cls-1" d="M204.72,214.54l-22.26-40.42h-50.04v40.42h-17.94v-90.63h80.67c21.58,0,29.81,8.88,29.81,21.89v6.44c0,11.71-6.61,20.08-23.47,21.63l22.39,40.68h-19.15ZM207.01,145.67c0-5.41-3.78-8.37-11.87-8.37h-62.72v23.43h62.72c8.09,0,11.87-2.96,11.87-8.37v-6.69Z"/>
        <path class="cls-1" d="M353.76,214.54l-48.96-72.99-49.77,72.99h-19.96l63.13-90.63h13.08l62.72,90.63h-20.23Z"/>
        <path class="cls-1" d="M503.25,214.54l-101.3-70.55v70.55h-15.65v-90.63h15.51l94.56,67.33v-67.33h15.65v90.63h-8.77Z"/>
        <path class="cls-1" d="M559.56,214.54c-21.58,0-29.81-8.88-29.81-21.89v-46.86c0-13,8.23-21.89,29.81-21.89h76.48v13.39h-76.48c-8.09,0-11.87,2.96-11.87,8.37v47.12c0,5.41,3.78,8.37,11.87,8.37h76.48v13.39h-76.48Z"/>
        <path class="cls-1" d="M652.02,214.54v-90.63h97.66v13.39h-79.72v22.66h75.67v13.39h-75.67v27.81h79.72v13.39h-97.66Z"/>
      </g>
      <g>
        <polygon class="cls-3" points="611.79 61.18 631.22 44.95 611.26 28.26 591.93 44.31 611.79 61.18"/>
        <path class="cls-3" d="M86.29,13.28H17.79v63.33h68.5c13.24,0,16.99-2.94,16.99-12.51V26.56c0-10.34-3.75-13.28-16.99-13.28Z"/>
        <path class="cls-3" d="M483.31,13.28h-62.21c-8.03,0-11.77,2.94-11.77,8.3v46.73c0,5.36,3.75,8.3,11.77,8.3h62.21c8.03,0,11.77-2.94,11.77-8.3V21.58c0-5.36-3.75-8.3-11.77-8.3Z"/>
        <path class="cls-1" d="M86.29,0H0v89.89h86.29c26.62,0,34.78-8.81,34.78-25.67V26.56c0-17.75-8.16-26.56-34.78-26.56ZM103.29,64.1c0,9.58-3.75,12.51-16.99,12.51H17.79V13.28h68.5c13.24,0,16.99,2.94,16.99,13.28v37.54Z"/>
        <polygon class="cls-1" points="137.78 89.89 234.65 89.89 234.65 76.61 155.58 76.61 155.58 49.03 230.63 49.03 230.63 35.75 155.58 35.75 155.58 13.28 234.65 13.28 234.65 0 137.78 0 137.78 89.89"/>
        <polygon class="cls-1" points="315.83 72.4 266.6 0 246.4 0 309.01 89.89 321.99 89.89 384.2 0 364.53 0 315.83 72.4"/>
        <path class="cls-1" d="M483.31,0h-62.21c-21.41,0-29.57,8.81-29.57,21.71v46.48c0,12.9,8.16,21.71,29.57,21.71h62.21c21.41,0,29.57-8.81,29.57-21.71V21.71c0-12.9-8.16-21.71-29.57-21.71ZM495.08,68.31c0,5.36-3.75,8.3-11.77,8.3h-62.21c-8.03,0-11.77-2.94-11.77-8.3V21.58c0-5.36,3.75-8.3,11.77-8.3h62.21c8.03,0,11.77,2.94,11.77,8.3v46.73Z"/>
        <polygon class="cls-1" points="622.57 89.89 645.58 89.89 623.02 70.72 611.61 80.53 622.57 89.89"/>
        <polygon class="cls-1" points="645.31 0 622.43 0 611.51 9.39 622.55 18.89 645.31 0"/>
        <polygon class="cls-1" points="591.93 44.31 611.26 28.26 600.26 19.07 580.56 36.01 538.68 0 515.54 0 569.32 44.95 515.54 89.89 538.82 89.89 580.56 54.01 600.25 70.83 611.79 61.18 591.93 44.31"/>
        <polygon class="cls-2" points="600.58 0 577.44 0 600.26 19.07 611.51 9.39 600.58 0"/>
        <polygon class="cls-2" points="577.44 89.89 600.72 89.89 611.61 80.53 600.25 70.83 577.44 89.89"/>
        <polygon class="cls-2" points="684.47 89.89 707.48 89.89 653.83 44.31 707.21 0 684.33 0 642.46 36.01 622.55 18.89 611.26 28.26 631.22 44.95 611.79 61.18 623.02 70.72 642.46 54.01 684.47 89.89"/>
        <polygon class="cls-2" points="600.25 70.83 611.61 80.53 623.02 70.72 611.79 61.18 600.25 70.83"/>
        <polygon class="cls-1" points="622.55 18.89 611.51 9.39 600.26 19.07 611.26 28.26 622.55 18.89"/>
      </g>
      <g>
        <path class="cls-1" d="M719.47,12.2V1.8h-6.68V0h15.59v1.8h-6.5v10.4h-2.41Z"/>
        <path class="cls-1" d="M747.2,12.2V3.65l-6.49,8.54h-1.97l-6.51-8.52v8.52h-2.23V0h2.25l7.57,9.96,7.54-9.96h2.06v12.2h-2.23Z"/>
      </g>
    </g>
  </g>
</svg>