<?xml version="1.0" encoding="UTF-8"?>
<svg id="Calque_2" data-name="Calque 2" xmlns="http://www.w3.org/2000/svg" viewBox="0 0 662.61 310.31">
  <defs>
    <style>
      .cls-1 {
        fill: #fff;
      }

      .cls-2 {
        fill: #f1a41c;
      }
    </style>
  </defs>
  <g id="Calque_1" data-name="Calque 1">
    <g>
      <polygon class="cls-1" points="369.49 310.31 448.94 310.31 371.05 244.14 331.65 278 369.49 310.31"/>
      <polygon class="cls-1" points="448.01 0 369.02 0 331.31 32.43 369.44 65.21 448.01 0"/>
      <polygon class="cls-1" points="263.73 152.96 330.45 97.57 292.47 65.83 224.47 124.3 79.9 0 0 0 185.67 155.16 0 310.31 80.36 310.31 224.47 186.45 292.44 244.51 332.29 211.21 263.73 152.96"/>
      <polygon class="cls-2" points="293.59 0 213.69 0 292.47 65.83 331.31 32.43 293.59 0"/>
      <polygon class="cls-2" points="213.69 310.31 294.06 310.31 331.65 278 292.44 244.51 213.69 310.31"/>
      <polygon class="cls-2" points="583.18 310.31 662.61 310.31 477.42 152.96 661.7 0 582.71 0 438.16 124.3 369.44 65.21 330.45 97.57 399.36 155.16 332.29 211.21 371.05 244.14 438.16 186.45 583.18 310.31"/>
      <polygon class="cls-2" points="292.44 244.51 331.65 278 371.05 244.14 332.29 211.21 292.44 244.51"/>
      <polygon class="cls-1" points="369.44 65.21 331.31 32.43 292.47 65.83 330.45 97.57 369.44 65.21"/>
    </g>
  </g>
</svg>