<?xml version="1.0" encoding="UTF-8"?>
<svg id="Calque_1" data-name="Calque 1" xmlns="http://www.w3.org/2000/svg" viewBox="0 0 841.89 199.02">
  <defs>
    <style>
      .cls-1 {
        fill: #23201d;
      }

      .cls-2 {
        fill: #85bd39;
      }
    </style>
  </defs>
  <g>
    <path class="cls-1" d="M170.01,77.35V19.98h52.57c16.22,0,21.19,5.62,21.19,16.95v24.04c0,10.76-4.97,16.38-21.19,16.38h-52.57ZM232.93,36.93c0-6.6-2.28-8.48-10.35-8.48h-41.73v40.42h41.73c8.07,0,10.35-1.87,10.35-7.99v-23.96Z"/>
    <path class="cls-1" d="M251.92,77.35V19.98h59.01v8.48h-48.17v14.34h45.72v8.48h-45.72v17.6h48.17v8.48h-59.01Z"/>
    <path class="cls-1" d="M350.94,77.35l-38.14-57.38h12.31l29.99,46.21,29.67-46.21h11.98l-37.9,57.38h-7.91Z"/>
    <path class="cls-1" d="M413.94,77.35c-13.04,0-18.01-5.62-18.01-13.86v-29.67c0-8.23,4.97-13.86,18.01-13.86h37.9c13.04,0,18.01,5.62,18.01,13.86v29.67c0,8.23-4.97,13.86-18.01,13.86h-37.9ZM459.01,33.75c0-3.42-2.28-5.3-7.17-5.3h-37.9c-4.89,0-7.17,1.87-7.17,5.3v29.83c0,3.42,2.28,5.3,7.17,5.3h37.9c4.89,0,7.17-1.87,7.17-5.3v-29.83Z"/>
    <path class="cls-1" d="M538.87,77.35l-25.59-22.9-25.43,22.9h-14.18l32.76-28.69-32.76-28.69h14.1l25.51,22.98,25.51-22.98h13.94l-32.52,28.28,32.68,29.1h-14.02Z"/>
    <path class="cls-2" d="M620.05,77.35l-25.59-22.9-25.43,22.9h-14.18l32.76-28.69-32.76-28.69h14.1l25.51,22.98,25.51-22.98h13.94l-32.52,28.28,32.68,29.1h-14.02Z"/>
    <path class="cls-1" d="M58.6,151.52v23.64h-10.84v-57.38h59.01v8.48h-48.17v16.79h44.91v8.48h-44.91Z"/>
    <path class="cls-1" d="M165.12,175.15l-13.45-25.59h-30.24v25.59h-10.84v-57.38h48.74c13.04,0,18.01,5.62,18.01,13.86v4.07c0,7.42-3.99,12.71-14.18,13.69l13.53,25.75h-11.57ZM166.51,131.55c0-3.42-2.28-5.3-7.17-5.3h-37.9v14.83h37.9c4.89,0,7.17-1.87,7.17-5.3v-4.24Z"/>
    <path class="cls-1" d="M250.45,175.15l-29.58-46.21-30.07,46.21h-12.06l38.14-57.38h7.91l37.9,57.38h-12.22Z"/>
    <path class="cls-1" d="M336.6,175.15l-61.21-44.66v44.66h-9.45v-57.38h9.37l57.13,42.62v-42.62h9.45v57.38h-5.3Z"/>
    <path class="cls-1" d="M368.05,175.15c-13.04,0-18.01-5.62-18.01-13.86v-29.67c0-8.23,4.97-13.86,18.01-13.86h46.21v8.48h-46.21c-4.89,0-7.17,1.87-7.17,5.3v29.83c0,3.42,2.28,5.3,7.17,5.3h46.21v8.48h-46.21Z"/>
    <path class="cls-1" d="M421.35,175.15v-57.38h59.01v8.48h-48.17v14.34h45.72v8.48h-45.72v17.6h48.17v8.48h-59.01Z"/>
    <path class="cls-2" d="M525.26,175.15v-20.95c0-8.23,4.97-13.86,18.01-13.86h23.31c4.89,0,7.17-1.87,7.17-5.3v-3.5c0-3.42-2.28-5.3-7.17-5.3h-38.22v-8.48h38.22c13.04,0,18.01,5.62,18.01,13.86v3.34c0,8.23-4.97,13.86-18.01,13.86h-23.31c-4.89,0-7.17,1.87-7.17,5.3v12.55h48.49v8.48h-59.33Z"/>
    <path class="cls-2" d="M610.1,175.15c-13.04,0-18.01-5.62-18.01-13.86v-29.67c0-8.23,4.97-13.86,18.01-13.86h26.98c13.04,0,18.01,5.62,18.01,13.86v29.67c0,8.23-4.97,13.86-18.01,13.86h-26.98ZM644.25,131.55c0-3.42-2.28-5.3-7.17-5.3h-26.98c-4.89,0-7.17,1.87-7.17,5.3v29.83c0,3.42,2.28,5.3,7.17,5.3h26.98c4.89,0,7.17-1.87,7.17-5.3v-29.83Z"/>
    <path class="cls-2" d="M662.26,175.15v-20.95c0-8.23,4.97-13.86,18.01-13.86h23.31c4.89,0,7.17-1.87,7.17-5.3v-3.5c0-3.42-2.28-5.3-7.17-5.3h-38.22v-8.48h38.22c13.04,0,18.01,5.62,18.01,13.86v3.34c0,8.23-4.97,13.86-18.01,13.86h-23.31c-4.89,0-7.17,1.87-7.17,5.3v12.55h48.49v8.48h-59.33Z"/>
  </g>
  <path class="cls-2" d="M730.52,175.5v-8.49h41.04c4.9,0,7.18-1.88,7.18-5.3v-10.28c0-3.43-2.28-5.3-7.18-5.3h-41.04v-28.07h57.19v8.49h-46.34v11.1h30.19c13.05,0,18.03,5.63,18.03,13.87v10.12c0,8.24-4.98,13.87-18.03,13.87h-41.04Z"/>
</svg>