<?xml version="1.0" encoding="UTF-8"?>
<svg id="Calque_2" data-name="Calque 2" xmlns="http://www.w3.org/2000/svg" viewBox="0 0 773.54 45.32">
  <defs>
    <style>
      .cls-1 {
        fill: #f1a41c;
      }

      .cls-2 {
        fill: none;
      }

      .cls-3 {
        fill: #141313;
      }
    </style>
  </defs>
  <g id="Calque_1" data-name="Calque 1">
    <g>
      <g>
        <path class="cls-3" d="M407.6,26.65v18.67h-8.97V0h48.84v6.7h-39.87v13.26h37.17v6.7h-37.17Z"/>
        <path class="cls-3" d="M501.01,45.32l-11.13-20.22h-25.03v20.22h-8.97V0h40.34c10.79,0,14.91,4.44,14.91,10.94v3.22c0,5.86-3.31,10.04-11.74,10.82l11.2,20.34h-9.58ZM502.15,10.88c0-2.7-1.89-4.19-5.94-4.19h-31.37v11.72h31.37c4.05,0,5.94-1.48,5.94-4.18v-3.35Z"/>
        <path class="cls-3" d="M575.54,45.32l-24.49-36.5-24.89,36.5h-9.98L547.75,0h6.54l31.37,45.32h-10.12Z"/>
        <path class="cls-3" d="M650.3,45.32l-50.66-35.28v35.28h-7.83V0h7.76l47.29,33.67V0h7.82v45.32h-4.38Z"/>
        <path class="cls-3" d="M678.46,45.32c-10.79,0-14.91-4.44-14.91-10.94V10.94c0-6.5,4.12-10.94,14.91-10.94h38.25v6.7h-38.25c-4.05,0-5.94,1.48-5.94,4.19v23.56c0,2.7,1.89,4.19,5.94,4.19h38.25v6.7h-38.25Z"/>
        <path class="cls-3" d="M724.7,45.32V0h48.84v6.7h-39.87v11.33h37.84v6.7h-37.84v13.91h39.87v6.7h-48.84Z"/>
      </g>
      <g>
        <polygon class="cls-2" points="308.38 30.85 318.18 22.66 308.11 14.25 298.37 22.34 308.38 30.85"/>
        <path class="cls-2" d="M43.5,6.7H8.97v31.92h34.53c6.68,0,8.56-1.48,8.56-6.31V13.39c0-5.21-1.89-6.69-8.56-6.69Z"/>
        <path class="cls-2" d="M243.62,6.7h-31.36c-4.05,0-5.93,1.48-5.93,4.18v23.56c0,2.7,1.89,4.18,5.93,4.18h31.36c4.05,0,5.93-1.48,5.93-4.18V10.88c0-2.7-1.89-4.18-5.93-4.18Z"/>
        <path class="cls-3" d="M43.5,0H0v45.31h43.5c13.42,0,17.53-4.44,17.53-12.94V13.39C61.03,4.45,56.92,0,43.5,0ZM52.06,32.32c0,4.83-1.89,6.31-8.56,6.31H8.97V6.7h34.53c6.68,0,8.56,1.48,8.56,6.69v18.92Z"/>
        <polygon class="cls-3" points="69.45 45.32 118.28 45.32 118.28 38.62 78.42 38.62 78.42 24.72 116.25 24.72 116.25 18.03 78.42 18.03 78.42 6.7 118.28 6.7 118.28 0 69.45 0 69.45 45.32"/>
        <polygon class="cls-3" points="159.2 36.5 134.38 0 124.2 0 155.76 45.32 162.3 45.32 193.66 0 183.75 0 159.2 36.5"/>
        <path class="cls-3" d="M243.62,0h-31.36c-10.79,0-14.9,4.44-14.9,10.94v23.43c0,6.5,4.11,10.94,14.9,10.94h31.36c10.79,0,14.9-4.44,14.9-10.94V10.95C258.52,4.45,254.41,0,243.62,0ZM249.55,34.44c0,2.7-1.89,4.18-5.93,4.18h-31.36c-4.05,0-5.93-1.48-5.93-4.18V10.88c0-2.7,1.89-4.18,5.93-4.18h31.36c4.05,0,5.93,1.48,5.93,4.18v23.56Z"/>
        <polygon class="cls-3" points="313.81 45.32 325.41 45.32 314.04 35.65 308.29 40.6 313.81 45.32"/>
        <polygon class="cls-3" points="325.28 0 313.75 0 308.24 4.74 313.81 9.53 325.28 0"/>
        <polygon class="cls-3" points="298.37 22.34 308.11 14.25 302.57 9.62 292.64 18.16 271.53 0 259.86 0 286.97 22.66 259.86 45.32 271.6 45.32 292.64 27.23 302.56 35.71 308.38 30.85 298.37 22.34"/>
        <polygon class="cls-1" points="302.73 0 291.07 0 302.57 9.62 308.24 4.74 302.73 0"/>
        <polygon class="cls-1" points="291.07 45.32 302.8 45.32 308.29 40.6 302.56 35.71 291.07 45.32"/>
        <polygon class="cls-1" points="345.02 45.32 356.61 45.32 329.57 22.34 356.48 0 344.95 0 323.84 18.16 313.81 9.53 308.11 14.25 318.18 22.66 308.38 30.85 314.04 35.65 323.84 27.23 345.02 45.32"/>
        <polygon class="cls-1" points="302.56 35.71 308.29 40.6 314.04 35.65 308.38 30.85 302.56 35.71"/>
        <polygon class="cls-3" points="313.81 9.53 308.24 4.74 302.57 9.62 308.11 14.25 313.81 9.53"/>
      </g>
      <g>
        <path class="cls-3" d="M362.66,6.15V.91h-3.37V0h7.86v.91h-3.28v5.24h-1.21Z"/>
        <path class="cls-3" d="M376.64,6.15V1.85l-3.27,4.31h-.99l-3.28-4.3v4.3h-1.12V0h1.13l3.82,5.02L376.72,0h1.04v6.15h-1.12Z"/>
      </g>
    </g>
  </g>
</svg>